<svg id="Layer_1" data-name="Layer 1" xmlns="http://www.w3.org/2000/svg" viewBox="0 0 526.72 307.43"><defs><style>.cls-1{isolation:isolate;}.cls-2{fill:#fff;}.cls-3{fill:#dc143c;}</style></defs><title>Group 23</title><g id="Group_23" data-name="Group 23"><g id="TALENT" class="cls-1"><g class="cls-1"><path class="cls-2" d="M70.81,69.38a4.91,4.91,0,0,1,.63,2.5l4.37-.63,3.13.63V70.63h2.5v1.25h1.87l-.62-1.25h1.25q2,1.71,7.5,3.12v.63h-.63l.63,1.25q0,2.81-26.25,3.75-7.5.93-7.5,3.75,0,1.88-19.38,58.75,0,1.56-6.25,22.5A208.62,208.62,0,0,0,28.31,195h-.62l-1.25-.62a4.92,4.92,0,0,1-1.88.62v-2.5a.55.55,0,0,1,.63-.62l-1.25-2.5V187.5h-.63l.63-3.12v-5l-1.25.62a1.1,1.1,0,0,1-1.25-1.25v-1.87c0-.84.62-1.25,1.87-1.25v-1.88a1.11,1.11,0,0,0-1.25-1.25q1.88-8.13,1.88-10.62a1.1,1.1,0,0,1-1.25-1.25q.93-3.75,3.75-3.75v-1.25l-1.25.62-1.25-3.12q0-2,4.37-9.38H27.06V142.5c.1-.83.52-1.25,1.25-1.25a.56.56,0,0,0,.63.63,37.3,37.3,0,0,1,.62-3.75.55.55,0,0,0-.62-.63c.41-4.17,1-6.25,1.87-6.25l-1.25-3.75q5.63-14.06,5.63-17.5,6.87-17,6.87-25Q30,88.44,9.56,99.38H8.94Q.81,98.44.81,92.5V90.63q7.65-8.28,50-19.38ZM23.94,176.25v1.25h.62v-1.25ZM24.56,160v1.25h.63V160Zm8.13-8.12v.62h1.25v-.62Z" transform="translate(-0.81 -11.94)"/><path class="cls-2" d="M134.41,56.09H135a15.25,15.25,0,0,1,5,6.25v1.88Q129.41,79.37,129.41,83v.62q3.12-1.4,3.12-3.12h1.25l1.25.62c.83-1.87,1.67-2.91,2.5-3.12h1.88l1.25.62c0-.62.62-1.25,1.87-1.87h1.25q10,0,11.88,13.12l.62,3.13h-.62l.62,1.25v2.5a.55.55,0,0,1-.62.62l.62,1.25v3.75a.55.55,0,0,1-.62.63.54.54,0,0,0,.62.62l-1.87,23.75q13.74.48,13.75,3.13-12,3.28-15.63,5l-6.25,50.62a4.94,4.94,0,0,1,.63,2.5c0,.84-.21,1.25-.63,1.25l.63,3.13v5l.62,6.25-2.5,1.87q-1.72,0-3.75-8.75a.55.55,0,0,1-.62-.62v-1.25a.55.55,0,0,1,.62-.63q-1.25-7.5-3.12-7.5a1.1,1.1,0,0,1-1.25,1.25h-1.25v-1.25h1.25v-.62a.56.56,0,0,0-.63-.63,4.89,4.89,0,0,0,.63-2.5h.62l1.25.63c.42-3.65,1-5.94,1.88-6.88v-2.5l-2.5-6.87.62-1.25c-1.25,0-1.87-.21-1.87-.63l2.5-3.12h-1.88q2-13.75,3.13-13.75L140,148c1.25-1.67,1.88-2.92,1.88-3.75h.62v3.12h.63c.41-3,.62-4.68.62-5v-1.25h-.62a4.89,4.89,0,0,1-.63,2.5c-1.25-.41-1.87-.83-1.87-1.25a7.28,7.28,0,0,0,1.25-3.75V138h-.63q-23.28,5.16-40,16.87-16.09,31.41-18.75,34.38a4.71,4.71,0,0,1-1.87.62q-3.91,0-9.38-5v-1.25q13.44-40.77,51.88-115Q126.91,56.1,134.41,56.09ZM85.66,151.72v1.87a1.1,1.1,0,0,0,1.25-1.25v-.62Zm3.75-10.63,1.25.63h1.25V138h-.63C90.55,138,89.93,139,89.41,141.09Zm6.25-6.25h1.25v-1.25C96.07,133.7,95.66,134.12,95.66,134.84Zm5-15.62-.63,4.37h1.25a4.94,4.94,0,0,1,.63-2.5h-.63l.63-1.25v-.62Zm1.25,17.5h.62a1.11,1.11,0,0,0,1.25-1.25h-.62C102.32,135.57,101.91,136,101.91,136.72Zm2.5-25.63v1.25h1.87v-.62a4.7,4.7,0,0,1-.62-1.88C104.82,110,104.41,110.37,104.41,111.09Zm1.25-5a7.65,7.65,0,0,1,.62,3.75q1.73,0,2.5-5.62Zm3.75-5v.63h1.25v-.63ZM111.28,98l-.62,1.25v.62h1.87v-.62A1.11,1.11,0,0,0,111.28,98Zm0,38.12q5.48-1.87,17.5-3.75a4.91,4.91,0,0,0,2.5.63,4.75,4.75,0,0,1,1.88-.63v-.62h-1.25v-1.25l5.62-1.88c0,.63.63,1.25,1.88,1.88h1.87a4.8,4.8,0,0,1,.63-1.88l1.25.63h.62c0-1.67.63-2.5,1.88-2.5s2.18-1,3.12-3.13a1.11,1.11,0,0,0-1.25-1.25h-.62v1.25h-1.25A43.78,43.78,0,0,0,146.91,113v-3.75l.62-1.25-1.25-.63a.55.55,0,0,1-.62.63l-.63-1.25V96.09c-.52-6.45-1.56-10-3.12-10.62q-12,6.25-23.13,32.5Q111.28,133.44,111.28,136.09Zm0-35v1.25h.63v-1.25Zm0,16.25v1.25h.63v-1.25Zm13.13-25.62H125a1.11,1.11,0,0,0,1.25-1.25h-.62C124.82,90.57,124.41,91,124.41,91.72Zm15,74.37v1.25H140v-1.25Zm.62-2.5v.63h1.25v-.63Zm.63-5v1.88h.62v-1.88ZM142.53,148v1.25h.63V148Zm2.5-29.38h.63v1.88l-.63,3.12a1.1,1.1,0,0,1-1.25-1.25v-2.5C143.88,119,144.3,118.59,145,118.59Zm0-8.75h1.25v1.25a1.1,1.1,0,0,1-1.25,1.25h-.62v-.62A4.87,4.87,0,0,0,145,109.84Zm-.62,6.25h1.25v1.25h-1.25Z" transform="translate(-0.81 -11.94)"/><path class="cls-2" d="M198.94,60.16h2.5q5.63,5,5.62,8.75v1.87q-3.75,14.07-18.12,53.75-6.42,20.63-7.5,20.63h-.63a4.94,4.94,0,0,0,.63,2.5q-7.5,20.94-8.28,30.31l1.25,3a292.12,292.12,0,0,0,34.37-4.38l16.09-3a98.46,98.46,0,0,1,9.85-.93,22.38,22.38,0,0,1,5.31-1.1l6.41.63v1.25q-57,22-77.5,23-8.76-4.53-8.75-10.63c.41-4.16.83-6.25,1.25-6.25l-.63-1.25v-3.75q4.22-21.09,8.13-25.62a.55.55,0,0,0,.62.62l-.62,1.25a4.92,4.92,0,0,1,.62,1.88l1.25-.63-.62-1.25,1.25-4.37v-.63h-.63c0,1.25-.42,1.88-1.25,1.88v-3.13l15-45a276.2,276.2,0,0,0,10.63-36.87C196,62.66,197.27,61.82,198.94,60.16ZM165.81,161.41V162c0,.63.63,1.25,1.88,1.88l.62-3.13v-.62A4.59,4.59,0,0,1,165.81,161.41Zm8.75-26.88v1.25h.63v-1.25Zm3.13-8.12a6.81,6.81,0,0,1-1.25,3.12h1.25l.62-2.5v-.62Zm4.37-13.75v1.25h.63v-1.25Z" transform="translate(-0.81 -11.94)"/><path class="cls-2" d="M271.59,71.88h2.5a7.18,7.18,0,0,1,4.38,1.87q10.62-1.25,14.37-1.25H311l1.87,1.25h.63l3.12-.62q0,1.09,7.5,3.12a8.52,8.52,0,0,1,2.5,5.63l-3.75,2.5c-.42,0-3.33-.63-8.75-1.88q-38.74,1.41-38.75,8.75-13.74,29.53-13.75,30h.63q32.8-9.37,35-9.37h.62c.52.62,3,1.25,7.5,1.87l1.25-.62c3.13,0,4.79.62,5,1.87v1.88q-.46,2.81-26.87,9.37-23.45,10-31.25,12.5-8,22.5-8.13,28.75,0,16.88,12.5,16.88A64.58,64.58,0,0,0,271,181.25l3.75.63q0-.63,4.37-2.5v-.63h1.25l1.25.63q0-1.87,11.25-6.88a.56.56,0,0,0,.63.63q1.41-2.65,5.62-4.38l.63,1.25q0,4.53-13.13,12.5Q269.71,195,259.09,195q-19.68,0-25-24.37V167.5q0-16.09,27.5-74.37Q269.41,71.88,271.59,71.88Z" transform="translate(-0.81 -11.94)"/><path class="cls-2" d="M445.19,52.5h2.5a.55.55,0,0,1,.62.63.56.56,0,0,0,.63-.63q5.63,0,5.62,5.63-13.9,10-31.25,60.62Q403.47,180,401.44,180a39.1,39.1,0,0,1-6.88,1.88,44.31,44.31,0,0,1-16.87-13.13,128,128,0,0,1-11.88-25.62q-3-1.57-6.87-17.5h.62q-5.62-16.41-6.87-22.5h-1.25q-1.26,5.15-12.5,35.62-11.25,31.41-11.25,41.88a34.2,34.2,0,0,0,2.5,12.5l-2.5,1.87h-4.38q-7.5-5-7.5-10.62V177.5q.63-16.25,4.38-18.12l-.63-1.25v-1.25a12.12,12.12,0,0,0,3.75-5.63l-1.25-.62q.46-5.94,4.38-14.38,5-12.5,5-15,2-1.25,5.62-15.62,6.09-16.09,7.5-25.63c1.88-1.67,4.79-2.5,8.75-2.5l9.38,8.13q9.53,45.78,20.62,70.62,4.53,9.23,8.13,12.5,10-21.72,18.75-44.37a7.53,7.53,0,0,0,3.12-3.13.55.55,0,0,0-.62-.62l.62-2.5-.62-2.5a115,115,0,0,1,11.25-26.25.55.55,0,0,0,.62.62q3.12-6.87,3.13-9.37l-.63-1.25a4.75,4.75,0,0,1,1.88-.63.55.55,0,0,0-.63-.62q0-2.35,5.63-11.25l5-8.13Q442.06,53.91,445.19,52.5ZM421.44,96.25h1.25V95C421.85,95.11,421.44,95.52,421.44,96.25Zm1.87-8.75h1.25v1.25h-1.25Z" transform="translate(-0.81 -11.94)"/><path class="cls-2" d="M506.91,69.38a5,5,0,0,1,.62,2.5l4.38-.63,3.12.63V70.63h2.5v1.25h1.88l-.63-1.25H520q2,1.71,7.5,3.12v.63h-.62l.62,1.25q0,2.81-26.25,3.75-7.5.93-7.5,3.75,0,1.88-19.37,58.75,0,1.56-6.25,22.5A205.94,205.94,0,0,0,464.41,195h-.63l-1.25-.62a4.88,4.88,0,0,1-1.87.62v-2.5a.54.54,0,0,1,.62-.62l-1.25-2.5V187.5h-.62l.62-3.12v-5l-1.25.62a1.11,1.11,0,0,1-1.25-1.25v-1.87c0-.84.63-1.25,1.88-1.25v-1.88a1.11,1.11,0,0,0-1.25-1.25q1.88-8.13,1.87-10.62a1.11,1.11,0,0,1-1.25-1.25q.95-3.75,3.75-3.75v-1.25l-1.25.62L460,153.13q0-2,4.38-9.38h-1.25V142.5c.1-.83.51-1.25,1.25-1.25a.55.55,0,0,0,.62.63q0-.48.63-3.75a.56.56,0,0,0-.63-.63c.42-4.17,1-6.25,1.88-6.25l-1.25-3.75q5.63-14.06,5.62-17.5,6.87-17,6.88-25-12,3.44-32.5,14.38H445q-8.13-.94-8.12-6.88V90.63q7.65-8.28,50-19.38ZM460,176.25v1.25h.63v-1.25Zm.63-16.25v1.25h.62V160Zm8.12-8.12v.62H470v-.62Z" transform="translate(-0.81 -11.94)"/></g></g><g id="_2019" data-name=" 2019" class="cls-1"><g class="cls-1"><path class="cls-3" d="M235,48H213.74V46.68l11.64-13.43q1.67-1.91,2.86-3.54a29.13,29.13,0,0,0,2-3.06,13.22,13.22,0,0,0,1.16-2.7,8.25,8.25,0,0,0,.38-2.44,9.86,9.86,0,0,0-.55-3.4,6.78,6.78,0,0,0-1.64-2.61,7.38,7.38,0,0,0-2.73-1.64,11,11,0,0,0-3.74-.58,9,9,0,0,0-3.54.7,8.62,8.62,0,0,0-2.84,1.93,8.74,8.74,0,0,0-1.86,2.92,9.73,9.73,0,0,0-.68,3.66h-1.31a11.09,11.09,0,0,1,.74-4.07,10.33,10.33,0,0,1,2.1-3.35,9.89,9.89,0,0,1,3.24-2.28,10.18,10.18,0,0,1,4.15-.83,12.94,12.94,0,0,1,4.13.62,8.46,8.46,0,0,1,3.15,1.81,8.16,8.16,0,0,1,2,3,11.2,11.2,0,0,1,.71,4.13,9.31,9.31,0,0,1-.64,3.32,19.12,19.12,0,0,1-1.67,3.32,33,33,0,0,1-2.36,3.3c-.88,1.09-1.76,2.16-2.66,3.22l-10.3,12H235Z" transform="translate(-0.81 -11.94)"/><path class="cls-3" d="M261.68,33.5a26,26,0,0,1-.68,6.26,14.1,14.1,0,0,1-2,4.71,9.09,9.09,0,0,1-3.32,3,10.47,10.47,0,0,1-9.1,0,9.34,9.34,0,0,1-3.35-3,14.13,14.13,0,0,1-2.07-4.71,25.42,25.42,0,0,1-.71-6.26V27a25.42,25.42,0,0,1,.7-6.25,14.08,14.08,0,0,1,2-4.74,9.23,9.23,0,0,1,3.33-3,10.45,10.45,0,0,1,9.09,0,9.28,9.28,0,0,1,3.35,3A14.49,14.49,0,0,1,261,20.71a25.94,25.94,0,0,1,.69,6.25ZM260.37,27a25.3,25.3,0,0,0-.58-5.58A13.54,13.54,0,0,0,258.06,17a8.28,8.28,0,0,0-14,0,13.77,13.77,0,0,0-1.72,4.34,25.33,25.33,0,0,0-.57,5.58v6.49a25,25,0,0,0,.57,5.52,13.61,13.61,0,0,0,1.75,4.34A8.57,8.57,0,0,0,247,46.16a8.85,8.85,0,0,0,8.21,0,8.4,8.4,0,0,0,2.9-2.85A13.81,13.81,0,0,0,259.8,39a25,25,0,0,0,.57-5.52Z" transform="translate(-0.81 -11.94)"/><path class="cls-3" d="M280.83,48h-1.32V14.11L269.3,18V16.51l11.26-4.15h.27Z" transform="translate(-0.81 -11.94)"/><path class="cls-3" d="M300.21,47.17A17.31,17.31,0,0,0,306.84,46a11.74,11.74,0,0,0,4.61-3.33,14,14,0,0,0,2.7-5.26,25.26,25.26,0,0,0,.88-7v-.15a9.93,9.93,0,0,1-1.7,2.59,10.78,10.78,0,0,1-5.2,3.22,11.62,11.62,0,0,1-3.26.44,9.21,9.21,0,0,1-4.23-1A10,10,0,0,1,297.4,33a12.07,12.07,0,0,1-2.06-3.81,14.4,14.4,0,0,1-.72-4.58,15.92,15.92,0,0,1,.74-4.88,12.66,12.66,0,0,1,2.13-4A10.24,10.24,0,0,1,300.8,13a9,9,0,0,1,4.27-1,12.35,12.35,0,0,1,4.76.87,9,9,0,0,1,3.54,2.61,12.15,12.15,0,0,1,2.21,4.37,22,22,0,0,1,.77,6.14v4a28.6,28.6,0,0,1-1,7.89,15.73,15.73,0,0,1-3,5.82,12.81,12.81,0,0,1-5,3.62,18.9,18.9,0,0,1-7.13,1.23h-.83l.05-1.32Zm4.66-11.91a10.19,10.19,0,0,0,3.95-.72,10.85,10.85,0,0,0,3-1.85,10.13,10.13,0,0,0,2.06-2.5,11.51,11.51,0,0,0,1.16-2.7V26a20.91,20.91,0,0,0-.67-5.56,11.28,11.28,0,0,0-1.94-4,8,8,0,0,0-3.1-2.38,10.34,10.34,0,0,0-4.15-.8,7.61,7.61,0,0,0-3.84,1,9.29,9.29,0,0,0-2.9,2.54,11.9,11.9,0,0,0-1.85,3.62,13.94,13.94,0,0,0-.64,4.2,13.22,13.22,0,0,0,.6,4,10.62,10.62,0,0,0,1.74,3.4,8.74,8.74,0,0,0,2.81,2.39A7.93,7.93,0,0,0,304.87,35.26Z" transform="translate(-0.81 -11.94)"/></g></g><g id="OKC" class="cls-1"><g class="cls-1"><path class="cls-2" d="M217.14,270.49A63.43,63.43,0,0,1,214.06,291a44.33,44.33,0,0,1-8.64,15.35A37.66,37.66,0,0,1,192.05,316a45.1,45.1,0,0,1-34.31,0,38.28,38.28,0,0,1-13.44-9.67A44.41,44.41,0,0,1,135.52,291a62.05,62.05,0,0,1-3.15-20.47v-4.37a63,63,0,0,1,3.11-20.44,45.13,45.13,0,0,1,8.72-15.45,37.53,37.53,0,0,1,13.4-9.74,45.13,45.13,0,0,1,34.32,0,37.49,37.49,0,0,1,13.39,9.74A45,45,0,0,1,214,245.68a63,63,0,0,1,3.11,20.44ZM196.36,266q0-15.66-5.61-23.79t-16-8.14q-10.39,0-16,8.14T153.16,266v4.51a57.39,57.39,0,0,0,1.47,13.77,30.67,30.67,0,0,0,4.23,10.05,18.42,18.42,0,0,0,6.81,6.16,19.76,19.76,0,0,0,9.22,2.08q10.4,0,15.93-8.2t5.54-23.86Z" transform="translate(-0.81 -11.94)"/><path class="cls-2" d="M263.21,278.08l-10.66,11.48V318H232V218.47h20.51v45.12l9-12.38,25.36-32.74h25.23L276.82,262.7,313.18,318h-24.4Z" transform="translate(-0.81 -11.94)"/><path class="cls-2" d="M396.92,284.85a40.73,40.73,0,0,1-3.41,13.94,32.49,32.49,0,0,1-7.93,10.9,36.31,36.31,0,0,1-12.27,7.11,48.91,48.91,0,0,1-16.44,2.57,42.73,42.73,0,0,1-17.2-3.32,35.28,35.28,0,0,1-12.92-9.53,43.4,43.4,0,0,1-8.13-15.08,64.93,64.93,0,0,1-2.84-19.86V265a63.07,63.07,0,0,1,2.94-19.89A44,44,0,0,1,327,230a36.05,36.05,0,0,1,13-9.57,42.23,42.23,0,0,1,17.09-3.35,47.49,47.49,0,0,1,16.44,2.63,35.39,35.39,0,0,1,12.13,7.32,33.17,33.17,0,0,1,7.8,11.14,46.56,46.56,0,0,1,3.55,14.05H376.55a31,31,0,0,0-1.53-7.86,15.42,15.42,0,0,0-3.46-5.75,14.38,14.38,0,0,0-5.81-3.52,27.4,27.4,0,0,0-8.61-1.19q-10.39,0-15.48,7.55t-5.1,23.41v6.7a71.91,71.91,0,0,0,1.13,13.54,28.55,28.55,0,0,0,3.56,9.71,15.59,15.59,0,0,0,6.29,5.84,20.48,20.48,0,0,0,9.33,1.95,28.71,28.71,0,0,0,8.37-1.09,14.84,14.84,0,0,0,5.88-3.32,15,15,0,0,0,3.66-5.57,27.61,27.61,0,0,0,1.64-7.79Z" transform="translate(-0.81 -11.94)"/></g></g></g></svg>